<svg width="128" height="128" xmlns="http://www.w3.org/2000/svg">
 <g>
  <title>background</title>
  <rect fill="none" id="canvas_background" height="93.428526" width="93.428526" y="-1" x="-1"/>
 </g>

 <g>
  <title>Layer 1</title>
  <circle id="svg_2" r="64" fill="#b29155" cy="64" cx="64"/>
  <path id="svg_4" fill="#FFFFFF" d="m91.77,28l-55.541,0c-4.527,0 -8.229,3.703 -8.229,8.229l0,55.542c0,4.525 3.702,8.229 8.229,8.229l55.543,0c4.525,0 8.229,-3.703 8.229,-8.229l0,-55.542c-0.001,-4.526 -3.704,-8.229 -8.231,-8.229zm-40.51,30.171c2.239,-4.792 7.101,-8.114 12.74,-8.114c5.64,0 10.5,3.322 12.74,8.114c0.844,1.806 1.318,3.818 1.318,5.943c0,7.763 -6.295,14.057 -14.058,14.057c-7.764,0 -14.058,-6.294 -14.058,-14.057c-0.001,-2.124 0.474,-4.137 1.318,-5.943zm40.339,31.2c0,1.132 -0.925,2.057 -2.058,2.057l-51.084,0c-1.132,0 -2.057,-0.925 -2.057,-2.057l0,-31.2l6.111,0c-0.526,1.912 -0.797,3.906 -0.797,5.943c0,5.953 2.318,11.549 6.528,15.758c4.209,4.21 9.806,6.526 15.758,6.526s11.549,-2.317 15.758,-6.526c4.209,-4.21 6.527,-9.806 6.527,-15.759c0,-2.037 -0.271,-4.031 -0.797,-5.943l6.11,0l0,31.201l0.001,0zm0,-41.828c0,1.509 -1.233,2.744 -2.743,2.744l-8.229,0c-1.509,0 -2.743,-1.235 -2.743,-2.744l0,-8.228c0,-1.509 1.234,-2.743 2.743,-2.743l8.229,0c1.509,0 2.742,1.234 2.742,2.743l0,8.228l0.001,0z"/>
 </g>
</svg>