<svg width="128" height="128" xmlns="http://www.w3.org/2000/svg">
 <g>
  <title>background</title>
  <rect fill="none" id="canvas_background" height="26.468329" width="26.468329" y="-1" x="-1"/>
 </g>

 <g>
  <title>Layer 1</title>
  <circle id="svg_2" r="64" fill="#b29155" cy="64" cx="64.188902"/>
  <path id="svg_4" fill="#FFFFFF" d="m44.119,95.934l-14.935,0l0,-48.004l14.935,0l0,48.004zm-7.463,-54.563c-4.792,0 -8.656,-3.876 -8.656,-8.653c0,-4.775 3.864,-8.652 8.656,-8.652c4.771,0 8.646,3.876 8.646,8.652c0.001,4.777 -3.874,8.653 -8.646,8.653zm63.344,54.563l-14.919,0l0,-23.344c0,-5.566 -0.097,-12.728 -7.752,-12.728c-7.765,0 -8.948,6.065 -8.948,12.33l0,23.742l-14.902,0l0,-48.004l14.301,0l0,6.562l0.204,0c1.99,-3.774 6.857,-7.753 14.117,-7.753c15.105,0 17.897,9.939 17.897,22.868l0.002,26.327l0,0z"/>
 </g>
</svg>