<svg width="512" height="512" xmlns="http://www.w3.org/2000/svg">
 <g>
  <title>background</title>
  <rect fill="none" id="canvas_background" height="393.493337" width="393.493337" y="-1" x="-1"/>
 </g>

 <g>
  <title>Layer 1</title>
  <path id="svg_2" fill="#b29155" d="m512,256c0,141.4 -114.6,256 -256,256c-141.4,0 -256,-114.6 -256,-256c0,-141.4 114.6,-256 256,-256c141.4,0 256,114.6 256,256z"/>
  <path id="svg_3" fill="#FFFFFF" d="m364,355.2c-4.1,6.7 -12.9,8.8 -19.6,4.7c-53.7,-32.8 -121.2,-40.2 -200.7,-22c-7.7,1.8 -15.3,-3 -17.1,-10.7c-1.8,-7.7 3,-15.3 10.7,-17.1c87.1,-19.9 161.7,-11.3 222,25.5c6.7,4.1 8.8,12.9 4.7,19.6m28,-62.2c-5.2,8.4 -16.1,11 -24.5,5.9c-61.4,-37.8 -155.1,-48.7 -227.7,-26.6c-9.4,2.9 -19.4,-2.5 -22.2,-11.9c-2.8,-9.4 2.5,-19.4 11.9,-22.2c83,-25.2 186.2,-13 256.7,30.4c8.3,5 11,16 5.8,24.4m2.4,-64.8c-73.7,-43.7 -195.2,-47.8 -265.5,-26.4c-11.3,3.4 -23.2,-3 -26.7,-14.2c-3.4,-11.3 2.9,-23.2 14.2,-26.7c80.7,-24.5 214.9,-19.8 299.7,30.6c10.2,6 13.5,19.1 7.5,29.3c-5.9,10.1 -19.1,13.4 -29.2,7.4"/>
 </g>
</svg>